<mxfile host="app.diagrams.net" modified="2020-11-26T12:30:37.454Z" agent="5.0 (Windows NT 10.0; Win64; x64) AppleWebKit/537.36 (KHTML, like Gecko) Chrome/86.0.4240.198 Safari/537.36" etag="0iJC5R30ykBvX7PTuSns" version="13.10.1" type="github">
  <diagram name="Page-1" id="e56a1550-8fbb-45ad-956c-1786394a9013">
    <mxGraphModel dx="1038" dy="529" grid="1" gridSize="10" guides="1" tooltips="1" connect="1" arrows="1" fold="1" page="1" pageScale="1" pageWidth="1100" pageHeight="850" background="#ffffff" math="0" shadow="0">
      <root>
        <mxCell id="0" />
        <mxCell id="1" parent="0" />
        <mxCell id="IH3QvxDDzBxGh7B5uFt7-1" value="TestQuestion" style="swimlane;fontStyle=1;align=center;verticalAlign=top;childLayout=stackLayout;horizontal=1;startSize=26;horizontalStack=0;resizeParent=1;resizeParentMax=0;resizeLast=0;collapsible=1;marginBottom=0;fontFamily=Lucida Console;" vertex="1" parent="1">
          <mxGeometry x="280" y="130" width="180" height="60" as="geometry" />
        </mxCell>
        <mxCell id="IH3QvxDDzBxGh7B5uFt7-3" value="" style="line;strokeWidth=1;fillColor=none;align=left;verticalAlign=middle;spacingTop=-1;spacingLeft=3;spacingRight=3;rotatable=0;labelPosition=right;points=[];portConstraint=eastwest;fontFamily=Lucida Console;" vertex="1" parent="IH3QvxDDzBxGh7B5uFt7-1">
          <mxGeometry y="26" width="180" height="8" as="geometry" />
        </mxCell>
        <mxCell id="IH3QvxDDzBxGh7B5uFt7-4" value="+ main(args: String[] )" style="text;strokeColor=none;fillColor=none;align=left;verticalAlign=top;spacingLeft=4;spacingRight=4;overflow=hidden;rotatable=0;points=[[0,0.5],[1,0.5]];portConstraint=eastwest;fontFamily=Lucida Console;" vertex="1" parent="IH3QvxDDzBxGh7B5uFt7-1">
          <mxGeometry y="34" width="180" height="26" as="geometry" />
        </mxCell>
        <mxCell id="IH3QvxDDzBxGh7B5uFt7-5" value="Card" style="swimlane;fontStyle=1;align=center;verticalAlign=top;childLayout=stackLayout;horizontal=1;startSize=26;horizontalStack=0;resizeParent=1;resizeParentMax=0;resizeLast=0;collapsible=1;marginBottom=0;fontFamily=Lucida Console;" vertex="1" parent="1">
          <mxGeometry x="590" y="130" width="160" height="94" as="geometry" />
        </mxCell>
        <mxCell id="IH3QvxDDzBxGh7B5uFt7-6" value="# suit : int&#xa;# rank : int" style="text;strokeColor=none;fillColor=none;align=left;verticalAlign=top;spacingLeft=4;spacingRight=4;overflow=hidden;rotatable=0;points=[[0,0.5],[1,0.5]];portConstraint=eastwest;fontFamily=Lucida Console;" vertex="1" parent="IH3QvxDDzBxGh7B5uFt7-5">
          <mxGeometry y="26" width="160" height="34" as="geometry" />
        </mxCell>
        <mxCell id="IH3QvxDDzBxGh7B5uFt7-7" value="" style="line;strokeWidth=1;fillColor=none;align=left;verticalAlign=middle;spacingTop=-1;spacingLeft=3;spacingRight=3;rotatable=0;labelPosition=right;points=[];portConstraint=eastwest;fontFamily=Lucida Console;" vertex="1" parent="IH3QvxDDzBxGh7B5uFt7-5">
          <mxGeometry y="60" width="160" height="8" as="geometry" />
        </mxCell>
        <mxCell id="IH3QvxDDzBxGh7B5uFt7-8" value="+Card(s: int, r: int)" style="text;strokeColor=none;fillColor=none;align=left;verticalAlign=top;spacingLeft=4;spacingRight=4;overflow=hidden;rotatable=0;points=[[0,0.5],[1,0.5]];portConstraint=eastwest;fontFamily=Lucida Console;" vertex="1" parent="IH3QvxDDzBxGh7B5uFt7-5">
          <mxGeometry y="68" width="160" height="26" as="geometry" />
        </mxCell>
        <mxCell id="IH3QvxDDzBxGh7B5uFt7-18" style="edgeStyle=orthogonalEdgeStyle;rounded=0;orthogonalLoop=1;jettySize=auto;html=1;entryX=0.485;entryY=1.077;entryDx=0;entryDy=0;entryPerimeter=0;fontFamily=Lucida Console;" edge="1" parent="1" source="IH3QvxDDzBxGh7B5uFt7-9" target="IH3QvxDDzBxGh7B5uFt7-8">
          <mxGeometry relative="1" as="geometry">
            <mxPoint x="660" y="230" as="targetPoint" />
            <Array as="points">
              <mxPoint x="670" y="277" />
              <mxPoint x="668" y="277" />
            </Array>
          </mxGeometry>
        </mxCell>
        <mxCell id="IH3QvxDDzBxGh7B5uFt7-9" value="ListElement" style="swimlane;fontStyle=1;align=center;verticalAlign=top;childLayout=stackLayout;horizontal=1;startSize=26;horizontalStack=0;resizeParent=1;resizeParentMax=0;resizeLast=0;collapsible=1;marginBottom=0;fontFamily=Lucida Console;" vertex="1" parent="1">
          <mxGeometry x="590" y="330" width="160" height="88" as="geometry" />
        </mxCell>
        <mxCell id="IH3QvxDDzBxGh7B5uFt7-10" value="# prev : ListElement&#xa;# next : ListElement&#xa;# card : Card" style="text;strokeColor=none;fillColor=none;align=left;verticalAlign=top;spacingLeft=4;spacingRight=4;overflow=hidden;rotatable=0;points=[[0,0.5],[1,0.5]];portConstraint=eastwest;fontFamily=Lucida Console;" vertex="1" parent="IH3QvxDDzBxGh7B5uFt7-9">
          <mxGeometry y="26" width="160" height="54" as="geometry" />
        </mxCell>
        <mxCell id="IH3QvxDDzBxGh7B5uFt7-11" value="" style="line;strokeWidth=1;fillColor=none;align=left;verticalAlign=middle;spacingTop=-1;spacingLeft=3;spacingRight=3;rotatable=0;labelPosition=right;points=[];portConstraint=eastwest;fontFamily=Lucida Console;" vertex="1" parent="IH3QvxDDzBxGh7B5uFt7-9">
          <mxGeometry y="80" width="160" height="8" as="geometry" />
        </mxCell>
        <mxCell id="IH3QvxDDzBxGh7B5uFt7-17" style="edgeStyle=orthogonalEdgeStyle;rounded=0;orthogonalLoop=1;jettySize=auto;html=1;entryX=0;entryY=0.5;entryDx=0;entryDy=0;fontFamily=Lucida Console;" edge="1" parent="1" source="IH3QvxDDzBxGh7B5uFt7-13" target="IH3QvxDDzBxGh7B5uFt7-10">
          <mxGeometry relative="1" as="geometry" />
        </mxCell>
        <mxCell id="IH3QvxDDzBxGh7B5uFt7-13" value="CardList" style="swimlane;fontStyle=1;align=center;verticalAlign=top;childLayout=stackLayout;horizontal=1;startSize=26;horizontalStack=0;resizeParent=1;resizeParentMax=0;resizeLast=0;collapsible=1;marginBottom=0;fontFamily=Lucida Console;" vertex="1" parent="1">
          <mxGeometry x="270" y="313" width="160" height="140" as="geometry" />
        </mxCell>
        <mxCell id="IH3QvxDDzBxGh7B5uFt7-14" value="# noOfElements: int&#xa;# first: ListElement&#xa;# last : ListElement&#xa;" style="text;strokeColor=none;fillColor=none;align=left;verticalAlign=top;spacingLeft=4;spacingRight=4;overflow=hidden;rotatable=0;points=[[0,0.5],[1,0.5]];portConstraint=eastwest;fontFamily=Lucida Console;" vertex="1" parent="IH3QvxDDzBxGh7B5uFt7-13">
          <mxGeometry y="26" width="160" height="54" as="geometry" />
        </mxCell>
        <mxCell id="IH3QvxDDzBxGh7B5uFt7-15" value="" style="line;strokeWidth=1;fillColor=none;align=left;verticalAlign=middle;spacingTop=-1;spacingLeft=3;spacingRight=3;rotatable=0;labelPosition=right;points=[];portConstraint=eastwest;fontFamily=Lucida Console;" vertex="1" parent="IH3QvxDDzBxGh7B5uFt7-13">
          <mxGeometry y="80" width="160" height="8" as="geometry" />
        </mxCell>
        <mxCell id="IH3QvxDDzBxGh7B5uFt7-16" value="+ insertCard(card : Card)&#xa;+ removeCard(card: Card) Card&#xa;+ getFirst() : Card" style="text;strokeColor=none;fillColor=none;align=left;verticalAlign=top;spacingLeft=4;spacingRight=4;overflow=hidden;rotatable=0;points=[[0,0.5],[1,0.5]];portConstraint=eastwest;fontFamily=Lucida Console;" vertex="1" parent="IH3QvxDDzBxGh7B5uFt7-13">
          <mxGeometry y="88" width="160" height="52" as="geometry" />
        </mxCell>
        <mxCell id="IH3QvxDDzBxGh7B5uFt7-19" value="&lt;font style=&quot;font-size: 19px&quot;&gt;1&lt;/font&gt;" style="text;html=1;align=center;verticalAlign=middle;resizable=0;points=[];autosize=1;fontFamily=Lucida Console;" vertex="1" parent="1">
          <mxGeometry x="425" y="390" width="30" height="20" as="geometry" />
        </mxCell>
        <mxCell id="IH3QvxDDzBxGh7B5uFt7-20" value="&lt;font style=&quot;font-size: 19px&quot;&gt;*&lt;/font&gt;" style="text;html=1;align=center;verticalAlign=middle;resizable=0;points=[];autosize=1;fontFamily=Lucida Console;" vertex="1" parent="1">
          <mxGeometry x="555" y="390" width="30" height="20" as="geometry" />
        </mxCell>
        <mxCell id="IH3QvxDDzBxGh7B5uFt7-21" value="&lt;font style=&quot;font-size: 19px&quot;&gt;1&lt;/font&gt;" style="text;html=1;align=center;verticalAlign=middle;resizable=0;points=[];autosize=1;fontFamily=Lucida Console;" vertex="1" parent="1">
          <mxGeometry x="670" y="310" width="30" height="20" as="geometry" />
        </mxCell>
        <mxCell id="IH3QvxDDzBxGh7B5uFt7-22" value="&lt;font style=&quot;font-size: 19px&quot;&gt;1&lt;/font&gt;" style="text;html=1;align=center;verticalAlign=middle;resizable=0;points=[];autosize=1;fontFamily=Lucida Console;" vertex="1" parent="1">
          <mxGeometry x="665" y="230" width="30" height="20" as="geometry" />
        </mxCell>
        <mxCell id="IH3QvxDDzBxGh7B5uFt7-23" value="&lt;font style=&quot;font-size: 16px&quot;&gt;+wrap&lt;/font&gt;" style="text;html=1;align=center;verticalAlign=middle;resizable=0;points=[];autosize=1;fontFamily=Lucida Console;" vertex="1" parent="1">
          <mxGeometry x="610" y="260" width="60" height="20" as="geometry" />
        </mxCell>
        <mxCell id="IH3QvxDDzBxGh7B5uFt7-24" value="&lt;font style=&quot;font-size: 16px&quot;&gt;+ list&lt;/font&gt;" style="text;html=1;align=center;verticalAlign=middle;resizable=0;points=[];autosize=1;fontFamily=Lucida Console;" vertex="1" parent="1">
          <mxGeometry x="465" y="360" width="70" height="20" as="geometry" />
        </mxCell>
      </root>
    </mxGraphModel>
  </diagram>
</mxfile>
